<svg xmlns="http://www.w3.org/2000/svg" viewBox="18 34 164 133" width="370" height="300">
 <title>Gold_Coast_Suns_logo</title>
 <path fill="#B00" d="m61 88.3h-35.7q1.2 3 3.1 5.9h34.7q-0.4-0.8-0.6-1.5-0.3-0.7-0.6-1.5-0.2-0.7-0.5-1.4-0.2-0.8-0.4-1.5zm3.2 8.2h-34.1q2.1 2.8 4.8 5.3h32.5q-0.4-0.7-0.9-1.3-0.4-0.6-0.8-1.3-0.4-0.6-0.8-1.3-0.4-0.7-0.7-1.4zm5.4 8h-31.5q0.8 0.6 1.6 1.2 0.8 0.6 1.6 1.2 0.9 0.5 1.7 1.1 0.9 0.5 1.7 1.1h29.6q-0.6-0.6-1.2-1.1-0.7-0.6-1.2-1.1-0.6-0.6-1.2-1.2-0.6-0.6-1.1-1.2zm63-2.7h32.5q2.7-2.5 4.8-5.3h-34.1q-0.3 0.7-0.7 1.4-0.4 0.7-0.8 1.3-0.4 0.7-0.8 1.3-0.5 0.6-0.9 1.3zm-19.3 14.2h27.1q4.9-1.7 9.3-3.9h-28.2q-1 0.6-2 1.2-1 0.5-2 1-1.1 0.5-2.1 0.9-1.1 0.5-2.1 0.8zm23.6-21.8h34.7q1.9-2.9 3.1-5.9h-35.7q-0.2 0.7-0.4 1.5-0.3 0.7-0.5 1.4-0.3 0.8-0.5 1.5-0.3 0.7-0.6 1.5zm39.6-14.5q0-0.7 0-1.3 0-1.5-0.2-3h-116.5c1.5-20.7 18.9-36.9 40.1-36.9 18.8 0 34.6 12.7 39 30h35.7c-7.8-19.8-38.3-34.5-74.7-34.5-40.6 0-73.8 18.3-76.4 41.4q-0.1 0.6-0.1 1.2v0.4q0 0.2-0.1 0.4 0 0.5 0 1 0 1.4 0.2 2.9h116.5q0 0.6-0.1 1.3 0 0.6-0.1 1.2-0.1 0.6-0.2 1.2-0.1 0.6-0.2 1.2h35.9q0.3-0.7 0.4-1.5 0.2-0.7 0.4-1.5 0.1-0.7 0.2-1.5 0.1-0.8 0.2-1.6v-0.4zm-50.9 29.4h29.6q0.8-0.5 1.7-1.1 0.8-0.5 1.7-1.1 0.8-0.6 1.6-1.2 0.8-0.6 1.6-1.2h-31.5q-0.5 0.6-1.1 1.2-0.5 0.6-1.1 1.2-0.6 0.6-1.2 1.1-0.7 0.6-1.3 1.1zm-47.1 3h-28.3q1.2 0.6 2.3 1.1 1.2 0.5 2.3 1 1.2 0.5 2.4 1 1.1 0.4 2.3 0.8h27.2q-1.1-0.3-2.2-0.8-1-0.4-2-0.9-1.1-0.5-2.1-1-1-0.6-1.9-1.2zm21.4 10.6c10.3 0 20-1.2 29-3.3h-57.9c8.9 2.1 18.7 3.3 28.9 3.3zm-62.3 43.6c-16.2 0-18.7-1.9-18.7-9.4h9.2v0.2c0 2.1 1.5 3.1 9.3 3.1 7.4 0 8.8-1 8.8-2.9v-0.2c0-1.7-1-2.3-11.7-2.8-13.3-0.6-15.5-2.7-15.5-9.1 0-6.4 2.8-9.2 17.6-9.2 16.6 0 17.8 3.2 17.8 9.2h-9.2v-0.1c0-2.2-2.5-3.1-8.5-3.1-6 0-8.4 0.8-8.4 2.7 0 1.6 0.9 1.9 11.6 2.5 13.2 0.7 15.5 3.4 15.5 9.4 0 6.7-2.6 9.7-17.7 9.7zm40.4 0c-16.2 0-18.8-3.2-18.8-13.4v-16.3h9.3v15.8c0 5.3 1.9 6 9.5 6 7.5 0 9.5-0.7 9.5-6v-15.8h9.2v16.3c0 10.2-2.6 13.4-18.7 13.4zm46.3-0.6l-12.7-21.2h-0.7v21.2h-8.9v-29.1h15.6l12.6 21.2h0.8v-21.2h8.8v29.1zm38.9 0.6c-16.3 0-18.7-1.9-18.8-9.4h9.3v0.2c0 2.1 1.4 3.1 9.3 3.1 7.3 0 8.7-1 8.7-2.9v-0.3c0-1.6-1-2.2-11.7-2.7-13.3-0.6-15.4-2.8-15.4-9.1 0-6.4 2.7-9.2 17.5-9.2 16.7 0 17.8 3.1 17.8 9.2h-9.2v-0.1c0-2.2-2.5-3.1-8.5-3.1-6 0-8.4 0.8-8.4 2.7 0 1.6 0.9 1.9 11.6 2.5 13.3 0.7 15.5 3.4 15.5 9.4 0 6.7-2.5 9.7-17.7 9.7z"/>
</svg>